_________________________  Visit us at _________________________
  
http://p2pdl.com  ____________________________  http://p2pdl.com


Architecture 101 2012 BRRip 720p x264 Korean ESubs - PRiSTiNE [P2PDL]

Genre: Romance
Plot: T35-year-old architect Seung-Min receives a visit 
at his office from a woman. Seung-Min doesn't recognize 
the woman at first, but then realizes the woman is Seo-Yeon. 
Seo-Yeon is his first love, but he hasn't seen her since 
his freshman year in college. Seo-Yeon now has a request. 
She wants to hire Seung-Min to rebuild her home on Jeju Island.
Director: Yong-Joo Lee
Stars: Tae-woong Eom, Ga-in Han, Je-hoon Lee
Rated: N/A

Info: 
http://www.imdb.com/title/tt2337981/


General
Complete name                  : Architecture 101 2012 BRRip 720p x264 Korean ESubs - PRiSTiNE.mp4
Format                         : MPEG-4
File size                      : 684 MiB
Duration                       : 1h 56mn
Overall bit rate mode          : Variable
Overall bit rate               : 822 Kbps

Video
Format                         : AVC
Format/Info                    : Advanced Video Codec
Format profile                 : High 10@L4.1
Bit rate                       : 739 Kbps
Width                          : 1 280 pixels
Height                         : 544 pixels
Display aspect ratio           : 2.35:1
Frame rate mode                : Constant
Frame rate                     : 23.976 fps
Bit depth                      : 10 bits
Stream size                    : 615 MiB (90%)
Writing library                : x264 core 130 r2273 b3065e6

Audio
Format                         : AAC
Format/Info                    : Advanced Audio Codec
Bit rate                       : 80.0 Kbps
Channel(s)                     : 2 channels
Channel positions              : Front: L R
Sampling rate                  : 48.0 KHz / 24.0 KHz
Stream size                    : 66.6 MiB (10%)

Subtitle                       : Yes (English)
Source                         : BluRay.720p.DTS.x264-CHD (Thanks)

Screens:
 
http://www.ultraimg.com/images/H1hB.jpg 
http://www.ultraimg.com/images/8egWu.jpg 
http://www.ultraimg.com/images/GEO6A.jpg 
http://www.ultraimg.com/images/Pn9K.jpg 
http://www.ultraimg.com/images/4YtJ3.jpg 
http://www.ultraimg.com/images/Ol673.jpg 
http://www.ultraimg.com/images/O21Pq.jpg

----------------------------------------------------------------------------------------------------


Encoded using revolutionary 10bit encoding, which enables us to provide you more crispier 
and sharper images at small sizes, just make sure you follow our instructions without a fault.
Recommend to you to use latest version of VLC player. Install K-Lite Codec Pack or shark007 codecs
in case of any kind of problem in playback (For non-VLC Media Player users). Alternatively, install
Core AVC codecs, the fastest decoder that there is coupled with Community Center Codec Pack and play
on Windows Media Player Classic. Check sample to be sure.
Enjoy!

Encoder Notes:Looking For Early Access To Anything You Can Provide DVDScr, R5, DVDR, BluRay, Direct
Audio, Music Releases and Seedboxes. We require dedicated servers, so as to do more 
and fast releases of movies.
If You Got anything to offer please contact us at "prg@hush.com".

Face book Fan Page:   
http://www.fb.me/p2pdl